<svg xmlns="http://www.w3.org/2000/svg" xmlns:xlink="http://www.w3.org/1999/xlink" width="470" height="468" id="notes">
  <defs>
    <filter id="a" width="111.8%" height="111.9%" x="-5.9%" y="-3.9%" filterUnits="objectBoundingBox">
      <feOffset dy="5" in="SourceAlpha" result="shadowOffsetOuter1"></feOffset>
      <feGaussianBlur in="shadowOffsetOuter1" result="shadowBlurOuter1" stdDeviation="4"></feGaussianBlur>
      <feColorMatrix in="shadowBlurOuter1" result="shadowMatrixOuter1" values="0 0 0 0 0 0 0 0 0 0 0 0 0 0 0 0 0 0 0.078125 0"></feColorMatrix>
      <feOffset dy="4" in="SourceAlpha" result="shadowOffsetOuter2"></feOffset>
      <feGaussianBlur in="shadowOffsetOuter2" result="shadowBlurOuter2" stdDeviation="5.5"></feGaussianBlur>
      <feColorMatrix in="shadowBlurOuter2" result="shadowMatrixOuter2" values="0 0 0 0 0 0 0 0 0 0 0 0 0 0 0 0 0 0 0.210824275 0"></feColorMatrix>
      <feMerge>
        <feMergeNode in="shadowMatrixOuter1"></feMergeNode>
        <feMergeNode in="shadowMatrixOuter2"></feMergeNode>
      </feMerge>
    </filter>
    <path id="b" d="M9.635 132.808C24.782 59.782 71.388 19.109 144.085 6.822c53.74-9.081 107.5-9.196 161.15.255 74.852 13.185 119.85 56.23 134.185 130.36 11.075 57.29 11.249 115.191-.174 172.427-15.324 72.52-63.132 117.285-135.561 129.527-53.74 9.08-107.5 9.195-161.15-.255-74.852-13.186-120.05-58.38-134.384-132.509-11.64-57.668-10.52-115.935 1.484-173.82z"></path>
  </defs>
  <g fill="none" fill-rule="evenodd">
    <g transform="translate(11 7)">
      <use xlink:href="#b" fill="#000" filter="url(#a)"></use>
      <use xlink:href="#b" fill="#F86141"></use>
    </g>
    <path fill="#FFF" d="M147.25 310.06v13.945c0 8.959 7.263 16.222 16.221 16.222H341.25v18.5H162.566c-18.676 0-33.816-15.14-33.816-33.815V310.06h18.5zm-9.924-18.333H107v-18.5h21.75V243.06h18.5v38.743c0 5.481-4.443 9.924-9.924 9.924zm-8.576-175.475c0-12.29 9.962-22.251 22.251-22.251h174.164c12.565 0 22.752 10.186 22.752 22.75l-.09 127.674a59.534 59.534 0 0 1-17.436 42.055l-20.861 20.86-13.082-13.081 16.024-16.023a57.857 57.857 0 0 0 16.945-40.908V112.5H147.25v35.302c0 5.48-4.443 9.924-9.924 9.924H107v-18.5h21.75v-22.975zm8.576 108.475H107v-18.5h21.75V176.06h18.5v38.743c0 5.481-4.443 9.924-9.924 9.924z"></path>
  </g>
</svg>
